
Margot, who lives in a comfortable middle class apartment, fears that she is losing her mind after having had her second child. Her husband Kurt, who is busy studying for an exam, does not understand her situation. Her mother-in-law and sister-in-law Lore are openly hostile to her. She resorts to valium and drink, and looks for sympathy, but to no avail.

General
Unique ID                                : 210007607563615665644723729068057898752 (0x9DFDFE767EB37443A225A254E3672F00)
Complete name                            : Fear.of.Fear.1975.PAL.DVDRip.x264.mkv
Format                                   : Matroska
Format version                           : Version 2
File size                                : 1.41 GiB
Duration                                 : 1h 28mn
Overall bit rate                         : 2 286 Kbps
Encoded date                             : UTC 2012-01-28 11:36:44
Writing application                      : mkvmerge v4.8.0 ('I Got The...') built on May 24 2011 03:12:58
Writing library                          : libebml v1.2.0 + libmatroska v1.1.0

Video
ID                                       : 1
Format                                   : AVC
Format/Info                              : Advanced Video Codec
Format profile                           : High@L4.0
Format settings, CABAC                   : Yes
Format settings, ReFrames                : 16 frames
Codec ID                                 : V_MPEG4/ISO/AVC
Duration                                 : 1h 28mn
Bit rate                                 : 2 048 Kbps
Width                                    : 718 pixels
Height                                   : 570 pixels
Display aspect ratio                     : 4:3
Original display aspect ratio            : 4:3
Frame rate mode                          : Constant
Frame rate                               : 25.000 fps
Color space                              : YUV
Chroma subsampling                       : 4:2:0
Bit depth                                : 8 bits
Scan type                                : Progressive
Bits/(Pixel*Frame)                       : 0.200
Stream size                              : 1.26 GiB (90%)
Writing library                          : x264 core 120 r2120 0c7dab9
Encoding settings                        : cabac=1 / ref=16 / deblock=1:-3:-3 / analyse=0x3:0x133 / me=umh / subme=11 / psy=1 / psy_rd=1.00:0.00 / mixed_ref=1 / me_range=32 / chroma_me=1 / trellis=2 / 8x8dct=1 / cqm=0 / deadzone=21,11 / fast_pskip=0 / chroma_qp_offset=-2 / threads=6 / sliced_threads=0 / nr=0 / decimate=1 / interlaced=0 / bluray_compat=0 / constrained_intra=0 / bframes=10 / b_pyramid=2 / b_adapt=2 / b_bias=0 / direct=3 / weightb=1 / open_gop=0 / weightp=2 / keyint=250 / keyint_min=25 / scenecut=40 / intra_refresh=0 / rc_lookahead=60 / rc=crf / mbtree=1 / crf=17.2 / qcomp=0.60 / qpmin=0 / qpmax=69 / qpstep=4 / ip_ratio=1.40 / aq=2:1.00
Language                                 : English
Default                                  : Yes
Forced                                   : No

Audio
ID                                       : 2
Format                                   : AC-3
Format/Info                              : Audio Coding 3
Mode extension                           : CM (complete main)
Format settings, Endianness              : Big
Codec ID                                 : A_AC3
Duration                                 : 1h 28mn
Bit rate mode                            : Constant
Bit rate                                 : 192 Kbps
Channel(s)                               : 2 channels
Channel positions                        : Front: L R
Sampling rate                            : 48.0 KHz
Bit depth                                : 16 bits
Compression mode                         : Lossy
Stream size                              : 121 MiB (8%)
Language                                 : German
Default                                  : Yes
Forced                                   : No

Text
ID                                       : 3
Format                                   : UTF-8
Codec ID                                 : S_TEXT/UTF8
Codec ID/Info                            : UTF-8 Plain Text
Language                                 : English
Default                                  : Yes
Forced                                   : No